<?xml version="1.0" encoding="utf-8"?>
<!-- Generator: Adobe Illustrator 19.0.0, SVG Export Plug-In . SVG Version: 6.00 Build 0)  -->
<svg version="1.1" id="Layer_1" xmlns="http://www.w3.org/2000/svg" xmlns:xlink="http://www.w3.org/1999/xlink" x="0px" y="0px"
	 viewBox="-354 280.3 280.5 36" style="enable-background:new -354 280.3 280.5 36;" xml:space="preserve">
<style type="text/css">
	.st0{fill:#FFFFFF;}
</style>
<g id="XMLID_20_">
	<path id="XMLID_21_" class="st0" d="M-324.5,283.1c-5,5.1-8.9,4.6-11.8,0c-1.5,8.2-5.1,15.8-12.7,19.3c-0.1,0-0.1,0-0.1-0.1
		l-0.4-1.8c-0.4,0-0.8,0-1.1,0l0.6,2v0.1l0.1,0.1c-0.3,0.1-0.5,0.1-0.6,0.3l-0.3,0.1c0.3,0,0.6-0.1,0.9-0.3c0,0,0,0,0.1,0.1l0.5,1.5
		l0.4,0.4l0.1-0.1l-0.3-2v-0.1v-0.1c1.5-0.5,3-1.3,4.4-2.3l-0.1,1.8l8,2.4c-0.8,0.9-1.5,1.8-2.3,2.5l-0.3-1.6
		c-0.4,0.1-0.8,0.1-1.3,0l0.8,2.1c0,0,0,0,0,0.1v0.1l0,0c-0.3,0.4-0.6,0.8-0.9,1l0.3-0.1c0.3-0.3,0.5-0.5,0.8-0.8l0.6,1.6l0.4,0.3
		h0.1l-0.4-2c0.1-0.1,0.1-0.1,0.1-0.3l-0.1-0.1c0-0.1,0-0.1,0-0.1c0.9-0.9,1.6-1.8,2.5-2.6l3.8,1.1l15.2-1.9l-0.5-4.5
		c1.6,1.3,3.5,2.4,5.5,3.1l0,0c0,0.1,0,0.1,0.1,0.1l-0.4,2l0.1,0.1l0.4-0.3l0.5-1.6c0.1,0,0.1,0,0.1-0.1c0.4,0.1,0.8,0.3,1.1,0.4
		l-0.1-0.1c-0.4-0.1-0.6-0.3-0.9-0.4l0,0c0-0.1,0-0.1,0-0.1l0.6-2.1c-0.4,0.1-0.8,0.1-1.1,0l-0.4,1.9l0,0
		C-319.7,298.6-324.2,292.6-324.5,283.1z M-311.6,302.3c-0.1,0-0.3,0-0.4-0.1l0.3-1.6c0.3,0,0.5,0,0.8,0L-311.6,302.3z
		 M-312.1,302.7c0.1,0.1,0.3,0.1,0.4,0.1l-0.5,1.5l-0.1,0.1L-312.1,302.7z M-339,307.2l-0.1,0.1c-0.1,0-0.3,0-0.3,0l-0.6-1.8
		c0.3,0,0.5,0,0.8,0L-339,307.2z M-338.9,307.7c-0.1,0.1-0.3,0.1-0.4,0.1l0.5,1.5l0.1,0.1L-338.9,307.7z M-349.7,302.5
		c0.1,0,0.3,0,0.4-0.1l-0.3-1.8c-0.3,0.1-0.5,0.1-0.8,0L-349.7,302.5z M-349.2,302.9c-0.1,0-0.3,0.1-0.4,0.1l0.5,1.5h0.1
		L-349.2,302.9z M-343.4,299.4l9.3,2c3-4.1,5.5-9,7.4-15.1c-3.8,1.5-6.6,1.1-8.9-0.9C-337.3,292.1-340,296.5-343.4,299.4z
		 M-334.3,301.5l-9.7-1.8l0.1,2l7.8,2C-335.5,303-334.9,302.3-334.3,301.5z M-325.2,286.5V304l0.3-0.1v-18.1
		C-325,286.1-325.1,286.4-325.2,286.5z M-327.5,304.3c1.3-4.6,1.6-10.3,1.6-16.3c-2.6,6.4-6,11.5-9.9,15.9l3.6,0.9L-327.5,304.3z
		 M-324.9,285.7L-324.9,285.7L-324.9,285.7L-324.9,285.7z M-322.7,303.7c-1.1-4.4-1.6-9.4-1.6-15.1c1.1,4.5,3.1,7.7,5.8,10l-0.3,0.9
		l0.8,3.5L-322.7,303.7z"/>
</g>
<g id="XMLID_145_">
	<path id="XMLID_146_" class="st0" d="M-293.6,296.2c0,3.8-0.7,6.5-5,6.5h-4.7v-13.1h4.7C-294.3,289.7-293.6,292.4-293.6,296.2z
		 M-296,296.2c0-2.9,0.2-4.9-3.4-4.9h-1.6v9.8h1.6C-295.9,301.2-296,299.2-296,296.2z"/>
	<path id="XMLID_149_" class="st0" d="M-292.1,300.1c0-1.6,0.8-2.7,2.9-3.2c1.4-0.3,2.7-0.5,3.3-0.7c0-1.4-0.7-1.4-1.9-1.4
		c-1,0-3.7,0.2-3.7,0.2l-0.1-1.7c0,0,4.2-0.2,4.9-0.2c2.6,0,3,1.5,3,4v5.6h-2.3v-1.2c-0.6,1-1.9,1.4-3.3,1.4
		C-291.3,302.9-292.1,301.7-292.1,300.1z M-290.1,300.1c0,0.9,1,1.2,1.5,1.2c1.7,0,2.7-1.2,2.7-2.6v-1.1c-0.8,0.2-1.7,0.4-2.3,0.6
		C-289.4,298.6-290.1,299.2-290.1,300.1z"/>
	<path id="XMLID_152_" class="st0" d="M-277.1,294.8c-1.3,0-2.1,0.9-2.1,2.5v5.4h-2.3v-9.5h2.3v1.3c0.5-0.8,1.3-1.3,2.7-1.3
		c2.8,0,3.8,1.8,3.8,3.9v5.6h-2.3v-5.4C-274.9,295.7-275.8,294.8-277.1,294.8z"/>
	<path id="XMLID_154_" class="st0" d="M-258.6,299.8c0,1.9-1.4,3.1-3.6,3.1c-2.2,0-3.5-0.8-3.4-3.3h2.4c0,1,0.4,1.4,1.1,1.4
		c0.8,0,1.3-0.3,1.3-1.3c0-1.1-0.7-1.7-2-1.7v-1.4c0.9-0.1,1.7-0.6,1.7-1.6c0-0.6-0.4-1.1-0.9-1.2c-0.8-0.1-1.3,0.5-1.4,1.5h-2.2
		c-0.1-2.1,1.1-3.5,3.4-3.5c2.2,0,3.4,1.3,3.4,2.9c0,1-0.4,2.1-1.8,2.4C-259.1,297.3-258.6,298.4-258.6,299.8z"/>
	<path id="XMLID_156_" class="st0" d="M-249.6,295.7v3.3c0,2.5-1.3,3.9-3.6,3.9c-2.3,0-3.6-1.4-3.6-3.9v-3.3c0-2.5,1.3-3.9,3.6-3.9
		C-250.9,291.8-249.6,293.2-249.6,295.7z M-251.9,299.5v-4.3c0-0.9-0.6-1.4-1.3-1.4c-0.8,0-1.3,0.6-1.3,1.4v4.3
		c0,0.8,0.4,1.5,1.3,1.5S-251.9,300.4-251.9,299.5z"/>
	<path id="XMLID_159_" class="st0" d="M-246.8,290.5h1.9v1.5l-1.5,3.3h-1L-246.8,290.5z"/>
	<path id="XMLID_161_" class="st0" d="M-238.6,300.5c0.1-0.7-0.3-1.2-1.7-1.8c-1.7-0.7-3.3-1.5-3.1-3.3c0.2-1.3,1.3-2.3,3.5-2.3
		c2.1,0,3.7,0.9,3.7,2.8h-2.2c0-0.7-0.3-1.3-1.3-1.3c-0.9,0-1.2,0.3-1.2,1.1c0,0.8,0.7,1,1.9,1.5c1.4,0.7,2.8,1.5,2.8,3.1
		c0,1.5-1.2,2.6-3.7,2.6c-2.2,0-3.4-1.2-3.5-2.9h2.4c0,0.9,0.6,1.4,1.3,1.4C-239.1,301.4-238.7,301.2-238.6,300.5z"/>
	<path id="XMLID_163_" class="st0" d="M-219.6,299.3c0,2.3-1.4,3.5-4,3.5h-5.4v-13.1h5.5c2,0,3.3,1.2,3.3,3c0,1.7-0.6,2.7-2.3,3
		C-220.3,296-219.6,297.3-219.6,299.3z M-226.6,294.9h2c1.5,0,2.3-0.8,2.3-2c0-1.2-0.7-1.6-2.2-1.6h-2.1V294.9z M-221.8,299
		c0-1.8-1-2.3-2.5-2.3h-2.3v4.5h2.4C-222.7,301.1-221.8,300.7-221.8,299z"/>
	<path id="XMLID_167_" class="st0" d="M-215.2,291.7h-2.3v-2h2.3V291.7z M-215.2,302.8h-2.3v-9.5h2.3V302.8z"/>
	<path id="XMLID_170_" class="st0" d="M-210.5,302.8h-2.2v-9.5h2.2v2c0.4-0.9,1.2-2,2.6-2.1c0.5,0,0.9,0,0.9,0l-0.1,2.2
		c0,0-0.6-0.1-0.9-0.1c-1.6,0-2.4,1.4-2.4,2.9V302.8z"/>
	<path id="XMLID_172_" class="st0" d="M-205.6,294.9h-1.4v-1.6h1.4c0-1.4,0-2.4,0-2.4h2.1c0,0,0,1,0,2.4h1.7v1.6h-1.7
		c0,2.2,0,4.5,0,5c0,1,0.4,1.1,0.9,1.1c0.6,0,1,0,1,0v1.8c0,0-1.3,0-2,0c-1,0-2.1-0.3-2.1-2.5C-205.6,299.4-205.6,297-205.6,294.9z"
		/>
	<path id="XMLID_174_" class="st0" d="M-197.9,302.8h-2.3v-13.1h2.3v4.6c0.6-0.7,1.6-1.1,2.8-1.1c2.4,0,3.8,1.8,3.8,3.9v5.6h-2.2
		v-5.3c0-1.6-0.9-2.5-2.2-2.5c-1.3,0-2.1,0.9-2.1,2.5V302.8z"/>
	<path id="XMLID_176_" class="st0" d="M-186.1,302.9c-1.9,0-3.8-0.7-3.8-4.7c0-4,1.9-5,3.8-5c1,0,2.1,0.2,2.7,1.1v-4.5h2.2v13.1
		h-2.2v-1.2C-183.8,302.5-185.1,302.9-186.1,302.9z M-183.3,298.1c0-2.4-1-3.3-2.1-3.3c-1.2,0-2.2,0.6-2.2,3.3c0,2.6,1,3.1,2.2,3.1
		C-184.3,301.2-183.3,300.4-183.3,298.1z"/>
	<path id="XMLID_179_" class="st0" d="M-179.4,300.1c0-1.6,0.8-2.7,2.9-3.2c1.4-0.3,2.7-0.5,3.3-0.7c0-1.4-0.7-1.4-1.9-1.4
		c-1,0-3.7,0.2-3.7,0.2l-0.1-1.7c0,0,4.2-0.2,4.9-0.2c2.6,0,3,1.5,3,4v5.6h-2.3v-1.2c-0.6,1-1.9,1.4-3.3,1.4
		C-178.6,302.9-179.4,301.7-179.4,300.1z M-177.3,300.1c0,0.9,1,1.2,1.5,1.2c1.7,0,2.7-1.2,2.7-2.6v-1.1c-0.8,0.2-1.7,0.4-2.3,0.6
		C-176.6,298.6-177.3,299.2-177.3,300.1z"/>
	<path id="XMLID_182_" class="st0" d="M-166.8,301.5l-3.3-8.2h2.5l1.8,5.7l1.4-5.7h2.4l-3.8,12.2h-2.3L-166.8,301.5z"/>
	<path id="XMLID_184_" class="st0" d="M-148.1,298.6h2.5c-0.4,3-2.2,4.3-5.1,4.3c-3.3,0-5.1-1.7-5.3-5.5c0-0.9,0-1.2,0-2.3
		c0.1-3.6,2-5.5,5.3-5.5c2.8,0,4.6,1.3,4.9,4.2h-2.4c-0.1-1.3-1-2.4-2.5-2.4c-1.9,0-2.7,1.1-2.9,3.2c-0.1,1-0.1,2.1,0,3.2
		c0.1,2.2,1,3.3,2.9,3.3C-149.1,301.1-148.3,300.2-148.1,298.6z"/>
	<path id="XMLID_186_" class="st0" d="M-144.5,300.1c0-1.6,0.8-2.7,2.9-3.2c1.4-0.3,2.7-0.5,3.3-0.7c0-1.4-0.7-1.4-1.9-1.4
		c-1,0-3.7,0.2-3.7,0.2l-0.1-1.7c0,0,4.2-0.2,4.9-0.2c2.6,0,3,1.5,3,4v5.6h-2.3v-1.2c-0.6,1-1.9,1.4-3.3,1.4
		C-143.8,302.9-144.5,301.7-144.5,300.1z M-142.5,300.1c0,0.9,1,1.2,1.5,1.2c1.7,0,2.7-1.2,2.7-2.6v-1.1c-0.8,0.2-1.7,0.4-2.3,0.6
		C-141.8,298.6-142.5,299.2-142.5,300.1z"/>
	<path id="XMLID_189_" class="st0" d="M-123.7,294.8c-1.2,0-2,0.9-2,2.5v5.4h-2.1v-5.4c0-1.6-0.7-2.5-1.9-2.5
		c-1.2,0-1.9,0.9-1.9,2.5v5.4h-2.1v-9.5h2.1v1.1c0.5-0.7,1.3-1.2,2.5-1.2c1.6,0,2.6,0.7,3.1,1.7c0.6-1,1.6-1.7,3-1.7
		c2.6,0,3.5,1.8,3.5,3.9v5.6h-2.1v-5.4C-121.8,295.7-122.5,294.8-123.7,294.8z"/>
	<path id="XMLID_191_" class="st0" d="M-115.2,305.5h-2.2v-12.2h2.2v1.2c0.4-0.9,1.7-1.3,2.8-1.3c1.8,0,3.8,0.7,3.8,4.7
		c0,4-1.9,5.1-3.8,5.1c-1,0-2.1-0.3-2.8-1.2V305.5z M-115.3,298c0,2.5,1,3.3,2.1,3.3c1.2,0,2.1-0.7,2.1-3.3c0-2.6-1-3.1-2.1-3.1
		C-114.3,294.9-115.3,295.6-115.3,298z"/>
	<path id="XMLID_194_" class="st0" d="M-104.5,291.7h-2.3v-2h2.3V291.7z M-104.5,302.8h-2.3v-9.5h2.3V302.8z"/>
	<path id="XMLID_197_" class="st0" d="M-97.8,294.8c-1.3,0-2.1,0.9-2.1,2.5v5.4h-2.3v-9.5h2.3v1.3c0.5-0.8,1.3-1.3,2.7-1.3
		c2.8,0,3.8,1.8,3.8,3.9v5.6h-2.3v-5.4C-95.6,295.7-96.5,294.8-97.8,294.8z"/>
	<path id="XMLID_199_" class="st0" d="M-85.5,293.3h2.3l0,8.2c0,2.5-0.7,4.4-3.1,4.6c-1.4,0.1-3.7,0-3.7,0l0.1-1.6
		c0,0,1.9,0.1,3.1,0c1.2-0.1,1.4-1,1.4-2v-1.1c-0.4,0.9-1.7,1.3-2.7,1.3c-1.8,0-3.8-0.8-3.8-4.8c0-4,1.9-4.8,3.8-4.8
		c1.3,0,2.2,0.6,2.7,1.6V293.3z M-85.4,298c0-2-0.9-3.1-2.1-3.1c-1.2,0-2.2,0.8-2.2,3.1c0,2.5,1,3,2.2,3
		C-86.3,301-85.4,300.3-85.4,298z"/>
</g>
<g id="XMLID_88_">
	<path id="XMLID_89_" class="st0" d="M-293.6,296.2c0,3.8-0.7,6.5-5,6.5h-4.7v-13.1h4.7C-294.3,289.7-293.6,292.4-293.6,296.2z
		 M-296,296.2c0-2.9,0.2-4.9-3.4-4.9h-1.6v9.8h1.6C-295.9,301.2-296,299.2-296,296.2z"/>
	<path id="XMLID_92_" class="st0" d="M-292.1,300.1c0-1.6,0.8-2.7,2.9-3.2c1.4-0.3,2.7-0.5,3.3-0.7c0-1.4-0.7-1.4-1.9-1.4
		c-1,0-3.7,0.2-3.7,0.2l-0.1-1.7c0,0,4.2-0.2,4.9-0.2c2.6,0,3,1.5,3,4v5.6h-2.3v-1.2c-0.6,1-1.9,1.4-3.3,1.4
		C-291.3,302.9-292.1,301.7-292.1,300.1z M-290.1,300.1c0,0.9,1,1.2,1.5,1.2c1.7,0,2.7-1.2,2.7-2.6v-1.1c-0.8,0.2-1.7,0.4-2.3,0.6
		C-289.4,298.6-290.1,299.2-290.1,300.1z"/>
	<path id="XMLID_95_" class="st0" d="M-277.1,294.8c-1.3,0-2.1,0.9-2.1,2.5v5.4h-2.3v-9.5h2.3v1.3c0.5-0.8,1.3-1.3,2.7-1.3
		c2.8,0,3.8,1.8,3.8,3.9v5.6h-2.3v-5.4C-274.9,295.7-275.8,294.8-277.1,294.8z"/>
	<path id="XMLID_97_" class="st0" d="M-258.6,299.8c0,1.9-1.4,3.1-3.6,3.1c-2.2,0-3.5-0.8-3.4-3.3h2.4c0,1,0.4,1.4,1.1,1.4
		c0.8,0,1.3-0.3,1.3-1.3c0-1.1-0.7-1.7-2-1.7v-1.4c0.9-0.1,1.7-0.6,1.7-1.6c0-0.6-0.4-1.1-0.9-1.2c-0.8-0.1-1.3,0.5-1.4,1.5h-2.2
		c-0.1-2.1,1.1-3.5,3.4-3.5c2.2,0,3.4,1.3,3.4,2.9c0,1-0.4,2.1-1.8,2.4C-259.1,297.3-258.6,298.4-258.6,299.8z"/>
	<path id="XMLID_99_" class="st0" d="M-249.6,295.7v3.3c0,2.5-1.3,3.9-3.6,3.9c-2.3,0-3.6-1.4-3.6-3.9v-3.3c0-2.5,1.3-3.9,3.6-3.9
		C-250.9,291.8-249.6,293.2-249.6,295.7z M-251.9,299.5v-4.3c0-0.9-0.6-1.4-1.3-1.4c-0.8,0-1.3,0.6-1.3,1.4v4.3
		c0,0.8,0.4,1.5,1.3,1.5S-251.9,300.4-251.9,299.5z"/>
	<path id="XMLID_102_" class="st0" d="M-246.8,290.5h1.9v1.5l-1.5,3.3h-1L-246.8,290.5z"/>
	<path id="XMLID_104_" class="st0" d="M-238.6,300.5c0.1-0.7-0.3-1.2-1.7-1.8c-1.7-0.7-3.3-1.5-3.1-3.3c0.2-1.3,1.3-2.3,3.5-2.3
		c2.1,0,3.7,0.9,3.7,2.8h-2.2c0-0.7-0.3-1.3-1.3-1.3c-0.9,0-1.2,0.3-1.2,1.1c0,0.8,0.7,1,1.9,1.5c1.4,0.7,2.8,1.5,2.8,3.1
		c0,1.5-1.2,2.6-3.7,2.6c-2.2,0-3.4-1.2-3.5-2.9h2.4c0,0.9,0.6,1.4,1.3,1.4C-239.1,301.4-238.7,301.2-238.6,300.5z"/>
	<path id="XMLID_106_" class="st0" d="M-219.6,299.3c0,2.3-1.4,3.5-4,3.5h-5.4v-13.1h5.5c2,0,3.3,1.2,3.3,3c0,1.7-0.6,2.7-2.3,3
		C-220.3,296-219.6,297.3-219.6,299.3z M-226.6,294.9h2c1.5,0,2.3-0.8,2.3-2c0-1.2-0.7-1.6-2.2-1.6h-2.1V294.9z M-221.8,299
		c0-1.8-1-2.3-2.5-2.3h-2.3v4.5h2.4C-222.7,301.1-221.8,300.7-221.8,299z"/>
	<path id="XMLID_110_" class="st0" d="M-215.2,291.7h-2.3v-2h2.3V291.7z M-215.2,302.8h-2.3v-9.5h2.3V302.8z"/>
	<path id="XMLID_113_" class="st0" d="M-210.5,302.8h-2.2v-9.5h2.2v2c0.4-0.9,1.2-2,2.6-2.1c0.5,0,0.9,0,0.9,0l-0.1,2.2
		c0,0-0.6-0.1-0.9-0.1c-1.6,0-2.4,1.4-2.4,2.9V302.8z"/>
	<path id="XMLID_115_" class="st0" d="M-205.6,294.9h-1.4v-1.6h1.4c0-1.4,0-2.4,0-2.4h2.1c0,0,0,1,0,2.4h1.7v1.6h-1.7
		c0,2.2,0,4.5,0,5c0,1,0.4,1.1,0.9,1.1c0.6,0,1,0,1,0v1.8c0,0-1.3,0-2,0c-1,0-2.1-0.3-2.1-2.5C-205.6,299.4-205.6,297-205.6,294.9z"
		/>
	<path id="XMLID_117_" class="st0" d="M-197.9,302.8h-2.3v-13.1h2.3v4.6c0.6-0.7,1.6-1.1,2.8-1.1c2.4,0,3.8,1.8,3.8,3.9v5.6h-2.2
		v-5.3c0-1.6-0.9-2.5-2.2-2.5c-1.3,0-2.1,0.9-2.1,2.5V302.8z"/>
	<path id="XMLID_119_" class="st0" d="M-186.1,302.9c-1.9,0-3.8-0.7-3.8-4.7c0-4,1.9-5,3.8-5c1,0,2.1,0.2,2.7,1.1v-4.5h2.2v13.1
		h-2.2v-1.2C-183.8,302.5-185.1,302.9-186.1,302.9z M-183.3,298.1c0-2.4-1-3.3-2.1-3.3c-1.2,0-2.2,0.6-2.2,3.3c0,2.6,1,3.1,2.2,3.1
		C-184.3,301.2-183.3,300.4-183.3,298.1z"/>
	<path id="XMLID_122_" class="st0" d="M-179.4,300.1c0-1.6,0.8-2.7,2.9-3.2c1.4-0.3,2.7-0.5,3.3-0.7c0-1.4-0.7-1.4-1.9-1.4
		c-1,0-3.7,0.2-3.7,0.2l-0.1-1.7c0,0,4.2-0.2,4.9-0.2c2.6,0,3,1.5,3,4v5.6h-2.3v-1.2c-0.6,1-1.9,1.4-3.3,1.4
		C-178.6,302.9-179.4,301.7-179.4,300.1z M-177.3,300.1c0,0.9,1,1.2,1.5,1.2c1.7,0,2.7-1.2,2.7-2.6v-1.1c-0.8,0.2-1.7,0.4-2.3,0.6
		C-176.6,298.6-177.3,299.2-177.3,300.1z"/>
	<path id="XMLID_125_" class="st0" d="M-166.8,301.5l-3.3-8.2h2.5l1.8,5.7l1.4-5.7h2.4l-3.8,12.2h-2.3L-166.8,301.5z"/>
	<path id="XMLID_127_" class="st0" d="M-148.1,298.6h2.5c-0.4,3-2.2,4.3-5.1,4.3c-3.3,0-5.1-1.7-5.3-5.5c0-0.9,0-1.2,0-2.3
		c0.1-3.6,2-5.5,5.3-5.5c2.8,0,4.6,1.3,4.9,4.2h-2.4c-0.1-1.3-1-2.4-2.5-2.4c-1.9,0-2.7,1.1-2.9,3.2c-0.1,1-0.1,2.1,0,3.2
		c0.1,2.2,1,3.3,2.9,3.3C-149.1,301.1-148.3,300.2-148.1,298.6z"/>
	<path id="XMLID_129_" class="st0" d="M-144.5,300.1c0-1.6,0.8-2.7,2.9-3.2c1.4-0.3,2.7-0.5,3.3-0.7c0-1.4-0.7-1.4-1.9-1.4
		c-1,0-3.7,0.2-3.7,0.2l-0.1-1.7c0,0,4.2-0.2,4.9-0.2c2.6,0,3,1.5,3,4v5.6h-2.3v-1.2c-0.6,1-1.9,1.4-3.3,1.4
		C-143.8,302.9-144.5,301.7-144.5,300.1z M-142.5,300.1c0,0.9,1,1.2,1.5,1.2c1.7,0,2.7-1.2,2.7-2.6v-1.1c-0.8,0.2-1.7,0.4-2.3,0.6
		C-141.8,298.6-142.5,299.2-142.5,300.1z"/>
	<path id="XMLID_132_" class="st0" d="M-123.7,294.8c-1.2,0-2,0.9-2,2.5v5.4h-2.1v-5.4c0-1.6-0.7-2.5-1.9-2.5
		c-1.2,0-1.9,0.9-1.9,2.5v5.4h-2.1v-9.5h2.1v1.1c0.5-0.7,1.3-1.2,2.5-1.2c1.6,0,2.6,0.7,3.1,1.7c0.6-1,1.6-1.7,3-1.7
		c2.6,0,3.5,1.8,3.5,3.9v5.6h-2.1v-5.4C-121.8,295.7-122.5,294.8-123.7,294.8z"/>
	<path id="XMLID_134_" class="st0" d="M-115.2,305.5h-2.2v-12.2h2.2v1.2c0.4-0.9,1.7-1.3,2.8-1.3c1.8,0,3.8,0.7,3.8,4.7
		c0,4-1.9,5.1-3.8,5.1c-1,0-2.1-0.3-2.8-1.2V305.5z M-115.3,298c0,2.5,1,3.3,2.1,3.3c1.2,0,2.1-0.7,2.1-3.3c0-2.6-1-3.1-2.1-3.1
		C-114.3,294.9-115.3,295.6-115.3,298z"/>
	<path id="XMLID_137_" class="st0" d="M-104.5,291.7h-2.3v-2h2.3V291.7z M-104.5,302.8h-2.3v-9.5h2.3V302.8z"/>
	<path id="XMLID_140_" class="st0" d="M-97.8,294.8c-1.3,0-2.1,0.9-2.1,2.5v5.4h-2.3v-9.5h2.3v1.3c0.5-0.8,1.3-1.3,2.7-1.3
		c2.8,0,3.8,1.8,3.8,3.9v5.6h-2.3v-5.4C-95.6,295.7-96.5,294.8-97.8,294.8z"/>
	<path id="XMLID_142_" class="st0" d="M-85.5,293.3h2.3l0,8.2c0,2.5-0.7,4.4-3.1,4.6c-1.4,0.1-3.7,0-3.7,0l0.1-1.6
		c0,0,1.9,0.1,3.1,0c1.2-0.1,1.4-1,1.4-2v-1.1c-0.4,0.9-1.7,1.3-2.7,1.3c-1.8,0-3.8-0.8-3.8-4.8c0-4,1.9-4.8,3.8-4.8
		c1.3,0,2.2,0.6,2.7,1.6V293.3z M-85.4,298c0-2-0.9-3.1-2.1-3.1c-1.2,0-2.2,0.8-2.2,3.1c0,2.5,1,3,2.2,3
		C-86.3,301-85.4,300.3-85.4,298z"/>
</g>
<g id="XMLID_2_">
	<path id="XMLID_32_" class="st0" d="M-293.6,296.2c0,3.8-0.7,6.5-5,6.5h-4.7v-13.1h4.7C-294.3,289.7-293.6,292.4-293.6,296.2z
		 M-296,296.2c0-2.9,0.2-4.9-3.4-4.9h-1.6v9.8h1.6C-295.9,301.2-296,299.2-296,296.2z"/>
	<path id="XMLID_35_" class="st0" d="M-292.1,300.1c0-1.6,0.8-2.7,2.9-3.2c1.4-0.3,2.7-0.5,3.3-0.7c0-1.4-0.7-1.4-1.9-1.4
		c-1,0-3.7,0.2-3.7,0.2l-0.1-1.7c0,0,4.2-0.2,4.9-0.2c2.6,0,3,1.5,3,4v5.6h-2.3v-1.2c-0.6,1-1.9,1.4-3.3,1.4
		C-291.3,302.9-292.1,301.7-292.1,300.1z M-290.1,300.1c0,0.9,1,1.2,1.5,1.2c1.7,0,2.7-1.2,2.7-2.6v-1.1c-0.8,0.2-1.7,0.4-2.3,0.6
		C-289.4,298.6-290.1,299.2-290.1,300.1z"/>
	<path id="XMLID_38_" class="st0" d="M-277.1,294.8c-1.3,0-2.1,0.9-2.1,2.5v5.4h-2.3v-9.5h2.3v1.3c0.5-0.8,1.3-1.3,2.7-1.3
		c2.8,0,3.8,1.8,3.8,3.9v5.6h-2.3v-5.4C-274.9,295.7-275.8,294.8-277.1,294.8z"/>
	<path id="XMLID_40_" class="st0" d="M-258.6,299.8c0,1.9-1.4,3.1-3.6,3.1c-2.2,0-3.5-0.8-3.4-3.3h2.4c0,1,0.4,1.4,1.1,1.4
		c0.8,0,1.3-0.3,1.3-1.3c0-1.1-0.7-1.7-2-1.7v-1.4c0.9-0.1,1.7-0.6,1.7-1.6c0-0.6-0.4-1.1-0.9-1.2c-0.8-0.1-1.3,0.5-1.4,1.5h-2.2
		c-0.1-2.1,1.1-3.5,3.4-3.5c2.2,0,3.4,1.3,3.4,2.9c0,1-0.4,2.1-1.8,2.4C-259.1,297.3-258.6,298.4-258.6,299.8z"/>
	<path id="XMLID_42_" class="st0" d="M-249.6,295.7v3.3c0,2.5-1.3,3.9-3.6,3.9c-2.3,0-3.6-1.4-3.6-3.9v-3.3c0-2.5,1.3-3.9,3.6-3.9
		C-250.9,291.8-249.6,293.2-249.6,295.7z M-251.9,299.5v-4.3c0-0.9-0.6-1.4-1.3-1.4c-0.8,0-1.3,0.6-1.3,1.4v4.3
		c0,0.8,0.4,1.5,1.3,1.5S-251.9,300.4-251.9,299.5z"/>
	<path id="XMLID_45_" class="st0" d="M-246.8,290.5h1.9v1.5l-1.5,3.3h-1L-246.8,290.5z"/>
	<path id="XMLID_47_" class="st0" d="M-238.6,300.5c0.1-0.7-0.3-1.2-1.7-1.8c-1.7-0.7-3.3-1.5-3.1-3.3c0.2-1.3,1.3-2.3,3.5-2.3
		c2.1,0,3.7,0.9,3.7,2.8h-2.2c0-0.7-0.3-1.3-1.3-1.3c-0.9,0-1.2,0.3-1.2,1.1c0,0.8,0.7,1,1.9,1.5c1.4,0.7,2.8,1.5,2.8,3.1
		c0,1.5-1.2,2.6-3.7,2.6c-2.2,0-3.4-1.2-3.5-2.9h2.4c0,0.9,0.6,1.4,1.3,1.4C-239.1,301.4-238.7,301.2-238.6,300.5z"/>
	<path id="XMLID_49_" class="st0" d="M-219.6,299.3c0,2.3-1.4,3.5-4,3.5h-5.4v-13.1h5.5c2,0,3.3,1.2,3.3,3c0,1.7-0.6,2.7-2.3,3
		C-220.3,296-219.6,297.3-219.6,299.3z M-226.6,294.9h2c1.5,0,2.3-0.8,2.3-2c0-1.2-0.7-1.6-2.2-1.6h-2.1V294.9z M-221.8,299
		c0-1.8-1-2.3-2.5-2.3h-2.3v4.5h2.4C-222.7,301.1-221.8,300.7-221.8,299z"/>
	<path id="XMLID_53_" class="st0" d="M-215.2,291.7h-2.3v-2h2.3V291.7z M-215.2,302.8h-2.3v-9.5h2.3V302.8z"/>
	<path id="XMLID_56_" class="st0" d="M-210.5,302.8h-2.2v-9.5h2.2v2c0.4-0.9,1.2-2,2.6-2.1c0.5,0,0.9,0,0.9,0l-0.1,2.2
		c0,0-0.6-0.1-0.9-0.1c-1.6,0-2.4,1.4-2.4,2.9V302.8z"/>
	<path id="XMLID_58_" class="st0" d="M-205.6,294.9h-1.4v-1.6h1.4c0-1.4,0-2.4,0-2.4h2.1c0,0,0,1,0,2.4h1.7v1.6h-1.7
		c0,2.2,0,4.5,0,5c0,1,0.4,1.1,0.9,1.1c0.6,0,1,0,1,0v1.8c0,0-1.3,0-2,0c-1,0-2.1-0.3-2.1-2.5C-205.6,299.4-205.6,297-205.6,294.9z"
		/>
	<path id="XMLID_60_" class="st0" d="M-197.9,302.8h-2.3v-13.1h2.3v4.6c0.6-0.7,1.6-1.1,2.8-1.1c2.4,0,3.8,1.8,3.8,3.9v5.6h-2.2
		v-5.3c0-1.6-0.9-2.5-2.2-2.5c-1.3,0-2.1,0.9-2.1,2.5V302.8z"/>
	<path id="XMLID_62_" class="st0" d="M-186.1,302.9c-1.9,0-3.8-0.7-3.8-4.7c0-4,1.9-5,3.8-5c1,0,2.1,0.2,2.7,1.1v-4.5h2.2v13.1h-2.2
		v-1.2C-183.8,302.5-185.1,302.9-186.1,302.9z M-183.3,298.1c0-2.4-1-3.3-2.1-3.3c-1.2,0-2.2,0.6-2.2,3.3c0,2.6,1,3.1,2.2,3.1
		C-184.3,301.2-183.3,300.4-183.3,298.1z"/>
	<path id="XMLID_65_" class="st0" d="M-179.4,300.1c0-1.6,0.8-2.7,2.9-3.2c1.4-0.3,2.7-0.5,3.3-0.7c0-1.4-0.7-1.4-1.9-1.4
		c-1,0-3.7,0.2-3.7,0.2l-0.1-1.7c0,0,4.2-0.2,4.9-0.2c2.6,0,3,1.5,3,4v5.6h-2.3v-1.2c-0.6,1-1.9,1.4-3.3,1.4
		C-178.6,302.9-179.4,301.7-179.4,300.1z M-177.3,300.1c0,0.9,1,1.2,1.5,1.2c1.7,0,2.7-1.2,2.7-2.6v-1.1c-0.8,0.2-1.7,0.4-2.3,0.6
		C-176.6,298.6-177.3,299.2-177.3,300.1z"/>
	<path id="XMLID_68_" class="st0" d="M-166.8,301.5l-3.3-8.2h2.5l1.8,5.7l1.4-5.7h2.4l-3.8,12.2h-2.3L-166.8,301.5z"/>
	<path id="XMLID_70_" class="st0" d="M-148.1,298.6h2.5c-0.4,3-2.2,4.3-5.1,4.3c-3.3,0-5.1-1.7-5.3-5.5c0-0.9,0-1.2,0-2.3
		c0.1-3.6,2-5.5,5.3-5.5c2.8,0,4.6,1.3,4.9,4.2h-2.4c-0.1-1.3-1-2.4-2.5-2.4c-1.9,0-2.7,1.1-2.9,3.2c-0.1,1-0.1,2.1,0,3.2
		c0.1,2.2,1,3.3,2.9,3.3C-149.1,301.1-148.3,300.2-148.1,298.6z"/>
	<path id="XMLID_72_" class="st0" d="M-144.5,300.1c0-1.6,0.8-2.7,2.9-3.2c1.4-0.3,2.7-0.5,3.3-0.7c0-1.4-0.7-1.4-1.9-1.4
		c-1,0-3.7,0.2-3.7,0.2l-0.1-1.7c0,0,4.2-0.2,4.9-0.2c2.6,0,3,1.5,3,4v5.6h-2.3v-1.2c-0.6,1-1.9,1.4-3.3,1.4
		C-143.8,302.9-144.5,301.7-144.5,300.1z M-142.5,300.1c0,0.9,1,1.2,1.5,1.2c1.7,0,2.7-1.2,2.7-2.6v-1.1c-0.8,0.2-1.7,0.4-2.3,0.6
		C-141.8,298.6-142.5,299.2-142.5,300.1z"/>
	<path id="XMLID_75_" class="st0" d="M-123.7,294.8c-1.2,0-2,0.9-2,2.5v5.4h-2.1v-5.4c0-1.6-0.7-2.5-1.9-2.5c-1.2,0-1.9,0.9-1.9,2.5
		v5.4h-2.1v-9.5h2.1v1.1c0.5-0.7,1.3-1.2,2.5-1.2c1.6,0,2.6,0.7,3.1,1.7c0.6-1,1.6-1.7,3-1.7c2.6,0,3.5,1.8,3.5,3.9v5.6h-2.1v-5.4
		C-121.8,295.7-122.5,294.8-123.7,294.8z"/>
	<path id="XMLID_77_" class="st0" d="M-115.2,305.5h-2.2v-12.2h2.2v1.2c0.4-0.9,1.7-1.3,2.8-1.3c1.8,0,3.8,0.7,3.8,4.7
		c0,4-1.9,5.1-3.8,5.1c-1,0-2.1-0.3-2.8-1.2V305.5z M-115.3,298c0,2.5,1,3.3,2.1,3.3c1.2,0,2.1-0.7,2.1-3.3c0-2.6-1-3.1-2.1-3.1
		C-114.3,294.9-115.3,295.6-115.3,298z"/>
	<path id="XMLID_80_" class="st0" d="M-104.5,291.7h-2.3v-2h2.3V291.7z M-104.5,302.8h-2.3v-9.5h2.3V302.8z"/>
	<path id="XMLID_83_" class="st0" d="M-97.8,294.8c-1.3,0-2.1,0.9-2.1,2.5v5.4h-2.3v-9.5h2.3v1.3c0.5-0.8,1.3-1.3,2.7-1.3
		c2.8,0,3.8,1.8,3.8,3.9v5.6h-2.3v-5.4C-95.6,295.7-96.5,294.8-97.8,294.8z"/>
	<path id="XMLID_85_" class="st0" d="M-85.5,293.3h2.3l0,8.2c0,2.5-0.7,4.4-3.1,4.6c-1.4,0.1-3.7,0-3.7,0l0.1-1.6c0,0,1.9,0.1,3.1,0
		c1.2-0.1,1.4-1,1.4-2v-1.1c-0.4,0.9-1.7,1.3-2.7,1.3c-1.8,0-3.8-0.8-3.8-4.8c0-4,1.9-4.8,3.8-4.8c1.3,0,2.2,0.6,2.7,1.6V293.3z
		 M-85.4,298c0-2-0.9-3.1-2.1-3.1c-1.2,0-2.2,0.8-2.2,3.1c0,2.5,1,3,2.2,3C-86.3,301-85.4,300.3-85.4,298z"/>
</g>
</svg>
